<svg xmlns="http://www.w3.org/2000/svg" xmlns:xlink="http://www.w3.org/1999/xlink" width="200" height="37" viewBox="0 0 200 37">
    <defs>
        <path id="a" d="M0 36.033h199.974V0H0z"/>
    </defs>
    <g fill="none" fill-rule="evenodd">
        <path fill="#FFF" d="M197.085 8.325c4.423 6.903 3.671 16.202-2.315 22.291-6.103 6.205-15.638 7.03-22.655 2.428l1.762-1.79c6.012 3.67 13.99 2.871 19.135-2.363 4.083-4.15 5.345-10.028 3.817-15.25a17.879 17.879 0 0 1-5.067 9.335 10.921 10.921 0 0 0 1.178-4.95c0-.222-.005-.441-.017-.657a15.606 15.606 0 0 0 1.793-7.307l.341-.348 1.76-1.79c.09.133.179.27.268.401"/>
        <path fill="#FEDC04" d="M187.873 22.18c1.997-2.844 1.71-6.807-.846-9.322-2.557-2.514-6.524-2.737-9.333-.69-.315.23-.618.488-.9.777a7.136 7.136 0 0 0-.762.912c-1.997 2.842-1.71 6.804.847 9.319.44.432.925.79 1.433 1.088a7.15 7.15 0 0 0 2.79.928 7.239 7.239 0 0 0 5.11-1.325c.319-.23.615-.489.897-.776.289-.289.54-.594.764-.912m7.47-16.14l-.951.97-1.84 1.87-1.73 1.76c.01.008.014.015.026.024l-1.328 1.347a9.637 9.637 0 0 1 2.092 5.845v.012c0 5.33-4.33 9.807-9.657 9.807a9.61 9.61 0 0 1-5.746-1.892l-.137-.096-2.93 2.984-.026-.02-2.914 2.956a20.158 20.158 0 0 1-.846-.775c-.282-.28-.555-.567-.816-.86l1.73-1.759 4.115-4.185a9.894 9.894 0 0 1-.863-1.29l-5.438 2.218-2.28.93a17.21 17.21 0 0 1-.892-2.187l2.284-.934 5.436-2.22a10.508 10.508 0 0 1-.266-1.337H166.5l-2.467.002c-.048-.79-.048-1.58 0-2.37h2.467l5.866-.001c.052-.417.132-.828.235-1.234l-5.462-2.153-2.296-.903a17.98 17.98 0 0 1 .863-2.204l2.296.905 5.462 2.15a10.1 10.1 0 0 1 .822-1.262l-4.188-4.118-1.757-1.727c.255-.298.523-.59.8-.874.28-.282.57-.552.863-.816l1.756 1.73 4.188 4.115c.35-.28.717-.53 1.098-.754l-2.341-5.384-.985-2.261a16.868 16.868 0 0 1 2.176-.943l.983 2.261 2.343 5.387a9.319 9.319 0 0 1 1.546-.322V2.562L180.763.1c.79-.051 1.584-.054 2.374-.002l-.007 2.465.007 5.866c.486.061.966.156 1.443.29l2.275-5.41.954-2.278c.743.256 1.476.562 2.186.917l-.957 2.272-2.275 5.413c.374.214.729.453 1.075.714l4.115-4.186 1.678-1.706.051-.049c.296.256.585.52.872.8.273.272.54.551.79.833"/>
        <mask id="b" fill="#fff">
            <use xlink:href="#a"/>
        </mask>
        <path fill="#FFF" d="M148.73 29.521h4.706V6.478h-4.706zM143.859 6.478V29.52h-2.292l-13.76-14.512v14.512h-4.675V6.478h2.292l13.722 14.512V6.478zM111.659 20.957l-3.497-7.614-3.462 7.614h6.959zm-2.322-14.48l11.015 23.044h-4.935l-2.092-4.674h-10.294l-2.063 4.674h-4.93l10.977-23.043h2.322zM93.25 6.478V29.52h-4.705V16.774l-7.121 10.002-7.164-10.002v12.747h-4.672V6.478h2.29l9.546 13.206 9.542-13.206zM66.251 25.599v3.922H49.715V6.478h4.675v19.121zM41.048 18.015c0-4.052-3.368-7.387-7.48-7.387-4.12 0-7.458 3.335-7.458 7.387 0 4.087 3.337 7.389 7.457 7.389 4.113 0 7.48-3.302 7.48-7.39M33.568 6.25c6.795 0 12.254 5.262 12.254 11.765 0 6.505-5.46 11.767-12.254 11.767-6.766 0-12.26-5.262-12.26-11.767 0-6.503 5.494-11.765 12.26-11.765M17.678 8.08l-1.9 3.726c-2.023-.849-4.871-1.535-7.024-1.535-2.355 0-3.662 1.046-3.662 2.484 0 1.634 1.639 2.32 5.098 3.105 4.968 1.111 8.371 2.679 8.371 6.895 0 4.447-3.565 7.06-8.923 7.06-3.923 0-5.92-.36-9.58-2.19l1.7-3.627C4.8 25.47 6.923 25.763 9.8 25.763c2.512 0 4.019-.916 4.019-2.615 0-1.568-1.537-2.254-4.903-3.04C4.178 19.03.35 17.689.35 13.146c0-4.054 3.238-6.928 8.503-6.928 3.497 0 6.57.884 8.825 1.864" mask="url(#b)"/>
    </g>
</svg>
